<svg width="189" height="44" viewBox="0 0 189 44" fill="none" xmlns="http://www.w3.org/2000/svg">
<rect width="189" height="44" fill="white"/>
<path opacity="0.98" d="M32.136 12.8V31H27.898L19.864 21.302V31H14.82V12.8H19.058L27.092 22.498V12.8H32.136ZM47.9613 27.464H40.2653L38.8353 31H33.5833L41.6173 12.8H46.6873L54.7473 31H49.3913L47.9613 27.464ZM46.4533 23.668L44.1133 17.844L41.7733 23.668H46.4533ZM72.6387 31L72.5867 21.354L67.9067 29.206H65.6187L60.9647 21.614V31H56.2067V12.8H60.4447L66.8407 23.304L73.0807 12.8H77.3187L77.3707 31H72.6387ZM95.6254 27.022V31H81.0134V12.8H95.2874V16.778H86.1094V19.846H94.1954V23.694H86.1094V27.022H95.6254ZM104.878 31.364C103.405 31.364 101.975 31.182 100.588 30.818C99.2014 30.454 98.0748 29.9687 97.2081 29.362L98.8981 25.566C99.7128 26.1033 100.657 26.5367 101.732 26.866C102.807 27.1953 103.864 27.36 104.904 27.36C106.88 27.36 107.868 26.866 107.868 25.878C107.868 25.358 107.582 24.9767 107.01 24.734C106.455 24.474 105.554 24.2053 104.306 23.928C102.937 23.6333 101.793 23.3213 100.874 22.992C99.9554 22.6453 99.1668 22.0993 98.5081 21.354C97.8494 20.6087 97.5201 19.6033 97.5201 18.338C97.5201 17.2287 97.8234 16.232 98.4301 15.348C99.0368 14.4467 99.9381 13.736 101.134 13.216C102.347 12.696 103.829 12.436 105.58 12.436C106.776 12.436 107.955 12.5747 109.116 12.852C110.277 13.112 111.3 13.502 112.184 14.022L110.598 17.844C108.865 16.908 107.183 16.44 105.554 16.44C104.531 16.44 103.786 16.596 103.318 16.908C102.85 17.2027 102.616 17.5927 102.616 18.078C102.616 18.5633 102.893 18.9273 103.448 19.17C104.003 19.4127 104.895 19.664 106.126 19.924C107.513 20.2187 108.657 20.5393 109.558 20.886C110.477 21.2153 111.265 21.7527 111.924 22.498C112.6 23.226 112.938 24.2227 112.938 25.488C112.938 26.58 112.635 27.568 112.028 28.452C111.421 29.336 110.511 30.0467 109.298 30.584C108.085 31.104 106.611 31.364 104.878 31.364ZM132.632 12.8V31H127.484V23.902H120.464V31H115.316V12.8H120.464V19.638H127.484V12.8H132.632ZM145.441 31.364C143.517 31.364 141.784 30.9567 140.241 30.142C138.716 29.3273 137.511 28.2007 136.627 26.762C135.761 25.3233 135.327 23.7027 135.327 21.9C135.327 20.0973 135.761 18.4767 136.627 17.038C137.511 15.5993 138.716 14.4727 140.241 13.658C141.784 12.8433 143.517 12.436 145.441 12.436C147.365 12.436 149.09 12.8433 150.615 13.658C152.158 14.4727 153.363 15.5993 154.229 17.038C155.113 18.4767 155.555 20.0973 155.555 21.9C155.555 23.7027 155.113 25.3233 154.229 26.762C153.363 28.2007 152.158 29.3273 150.615 30.142C149.09 30.9567 147.365 31.364 145.441 31.364ZM145.441 27.1C146.36 27.1 147.192 26.8833 147.937 26.45C148.683 26.0167 149.272 25.41 149.705 24.63C150.139 23.8327 150.355 22.9227 150.355 21.9C150.355 20.8773 150.139 19.976 149.705 19.196C149.272 18.3987 148.683 17.7833 147.937 17.35C147.192 16.9167 146.36 16.7 145.441 16.7C144.523 16.7 143.691 16.9167 142.945 17.35C142.2 17.7833 141.611 18.3987 141.177 19.196C140.744 19.976 140.527 20.8773 140.527 21.9C140.527 22.9227 140.744 23.8327 141.177 24.63C141.611 25.41 142.2 26.0167 142.945 26.45C143.691 26.8833 144.523 27.1 145.441 27.1ZM166.572 12.8C168.218 12.8 169.648 13.0773 170.862 13.632C172.075 14.1693 173.011 14.9493 173.67 15.972C174.328 16.9773 174.658 18.1647 174.658 19.534C174.658 20.9033 174.328 22.0907 173.67 23.096C173.011 24.1013 172.075 24.8813 170.862 25.436C169.648 25.9733 168.218 26.242 166.572 26.242H163.4V31H158.252V12.8H166.572ZM166.26 22.186C167.317 22.186 168.114 21.9607 168.652 21.51C169.189 21.042 169.458 20.3833 169.458 19.534C169.458 18.6847 169.189 18.026 168.652 17.558C168.114 17.09 167.317 16.856 166.26 16.856H163.4V22.186H166.26Z" fill="black"/>
</svg>
