<svg width="59" height="12" viewBox="0 0 59 12" fill="none" xmlns="http://www.w3.org/2000/svg">
<g opacity="0.85">
<path d="M30.41 10L30.4 5.36L28.1 9.2H27.52L25.22 5.42V10H23.99V3H25.06L27.83 7.63L30.57 3H31.63L31.65 10H30.41ZM38.8589 8.91V10H33.6089V3H38.7189V4.09H34.9089V5.91H38.2889V6.98H34.9089V8.91H38.8589ZM46.5281 3V10H45.2281V7H41.6081V10H40.3081V3H41.6081V5.89H45.2281V3H46.5281ZM54.4817 2.9C55.1684 2.9 55.7851 3.05667 56.3317 3.37C56.8851 3.67667 57.3184 4.10333 57.6317 4.65C57.9451 5.19667 58.1017 5.81333 58.1017 6.5C58.1017 7.18667 57.9451 7.80333 57.6317 8.35C57.3184 8.89667 56.8851 9.32667 56.3317 9.64C55.7851 9.94667 55.1684 10.1 54.4817 10.1C53.8551 10.1 53.2817 9.97 52.7617 9.71C52.2484 9.45 51.8251 9.08667 51.4917 8.62C51.1651 8.15333 50.9617 7.62333 50.8817 7.03H49.7817V10H48.5017V3H49.7817V5.87H50.9017C50.9951 5.29 51.2051 4.77667 51.5317 4.33C51.8651 3.87667 52.2851 3.52667 52.7917 3.28C53.3051 3.02667 53.8684 2.9 54.4817 2.9ZM54.4817 8.96C54.9151 8.96 55.3084 8.85667 55.6617 8.65C56.0151 8.44333 56.2917 8.15333 56.4917 7.78C56.6917 7.40667 56.7917 6.98 56.7917 6.5C56.7917 6.02 56.6917 5.59333 56.4917 5.22C56.2917 4.84667 56.0151 4.55667 55.6617 4.35C55.3084 4.14333 54.9151 4.04 54.4817 4.04C54.0484 4.04 53.6551 4.14333 53.3017 4.35C52.9551 4.55667 52.6784 4.84667 52.4717 5.22C52.2717 5.59333 52.1717 6.02 52.1717 6.5C52.1717 6.98 52.2717 7.40667 52.4717 7.78C52.6784 8.15333 52.9551 8.44333 53.3017 8.65C53.6551 8.85667 54.0484 8.96 54.4817 8.96Z" fill="#252525"/>
</g>
<rect y="3" width="15" height="2" fill="#424242"/>
<rect y="8" width="15" height="2" fill="#424242"/>
</svg>
